<?xml version="1.0" encoding="UTF-8" standalone="no"?>
<svg
   viewBox="0 0 90.459999 90.459999"
   version="1.1"
   width="90.459999"
   height="90.459999"
   xmlns:inkscape="http://www.inkscape.org/namespaces/inkscape"
   xmlns:sodipodi="http://sodipodi.sourceforge.net/DTD/sodipodi-0.dtd"
   xmlns="http://www.w3.org/2000/svg"
   xmlns:svg="http://www.w3.org/2000/svg">
  <sodipodi:namedview
     id="namedview3"
     pagecolor="#ffffff"
     bordercolor="#000000"
     borderopacity="0.25"
     inkscape:showpageshadow="2"
     inkscape:pageopacity="0.0"
     inkscape:pagecheckerboard="0"
     inkscape:deskcolor="#d1d1d1" />
  <defs
     id="defs1">
    <style
       id="style1">
      .cls-1 {
        fill: #f6f6f6;
      }

      .cls-2 {
        fill: #706f6f;
        stroke: #1d1d1b;
        stroke-miterlimit: 10;
      }
    </style>
  </defs>
  <path
     class="cls-2"
     d="M 89.96,5.25 V 85.2 c 0,2.63 -2.13,4.76 -4.76,4.76 H 5.25 C 2.63,89.96 0.5,87.83 0.5,85.2 V 5.25 C 0.5,2.62 2.63,0.5 5.25,0.5 H 85.2 c 2.63,0 4.76,2.12 4.76,4.75 z"
     id="path1" />
  <path
     class="cls-1"
     d="M 41.48,46.5 12.76,65.69 c -1.02,0.68 -2.38,-0.05 -2.38,-1.27 V 26.04 c 0,-1.22 1.36,-1.95 2.38,-1.27 l 28.72,19.19 c 0.91,0.61 0.91,1.94 0,2.54 z"
     id="path2" />
  <path
     class="cls-1"
     d="M 69.41,46.5 40.69,65.69 c -1.02,0.68 -2.38,-0.05 -2.38,-1.27 V 26.04 c 0,-1.22 1.36,-1.95 2.38,-1.27 l 28.72,19.19 c 0.91,0.61 0.91,1.94 0,2.54 z"
     id="path3" />
  <rect
     class="cls-1"
     x="68.12999"
     y="24.189999"
     width="10.91"
     height="42.07"
     rx="1.47"
     ry="1.47"
     id="rect3" />
</svg>
