<?xml version="1.0" encoding="UTF-8" standalone="no"?>
<svg
   viewBox="0 0 90.459999 90.459998"
   version="1.1"
   width="90.459999"
   height="90.459999"
   xmlns:inkscape="http://www.inkscape.org/namespaces/inkscape"
   xmlns:sodipodi="http://sodipodi.sourceforge.net/DTD/sodipodi-0.dtd"
   xmlns="http://www.w3.org/2000/svg"
   xmlns:svg="http://www.w3.org/2000/svg">
  <sodipodi:namedview
     id="namedview2"
     pagecolor="#ffffff"
     bordercolor="#000000"
     borderopacity="0.25"
     inkscape:showpageshadow="2"
     inkscape:pageopacity="0.0"
     inkscape:pagecheckerboard="0"
     inkscape:deskcolor="#d1d1d1" />
  <defs
     id="defs1">
    <style
       id="style1">
      .cls-1, .cls-2 {
        fill: #f6f6f6;
      }

      .cls-2, .cls-3 {
        stroke: #1d1d1b;
        stroke-miterlimit: 10;
      }

      .cls-3 {
        fill: #706f6f;
      }
    </style>
  </defs>
  <polygon
     class="cls-2"
     points="209.71,205.31 209.57,205.07 209.44,205.31 "
     id="polygon1"
     transform="translate(-129.5,-139.2)" />
  <path
     class="cls-3"
     d="M 89.96,5.25 V 85.2 c 0,2.63 -2.13,4.76 -4.76,4.76 H 5.25 C 2.63,89.96 0.5,87.83 0.5,85.2 V 5.25 C 0.5,2.62 2.63,0.5 5.25,0.5 H 85.2 c 2.63,0 4.76,2.12 4.76,4.75 z"
     id="path1" />
  <path
     class="cls-1"
     d="M 64.73,45.26 32.35,64.64 c -1.02,0.61 -2.31,-0.12 -2.31,-1.31 V 24.56 c 0,-1.19 1.29,-1.92 2.31,-1.31 l 32.38,19.38 c 0.99,0.59 0.99,2.03 0,2.62 z"
     id="path2" />
</svg>
