<?xml version="1.0" encoding="UTF-8" standalone="no"?>
<svg
   viewBox="0 0 90.459999 90.459999"
   version="1.1"
   width="90.459999"
   height="90.459999"
   xmlns:inkscape="http://www.inkscape.org/namespaces/inkscape"
   xmlns:sodipodi="http://sodipodi.sourceforge.net/DTD/sodipodi-0.dtd"
   xmlns="http://www.w3.org/2000/svg"
   xmlns:svg="http://www.w3.org/2000/svg">
  <sodipodi:namedview
     id="namedview3"
     pagecolor="#ffffff"
     bordercolor="#000000"
     borderopacity="0.25"
     inkscape:showpageshadow="2"
     inkscape:pageopacity="0.0"
     inkscape:pagecheckerboard="0"
     inkscape:deskcolor="#d1d1d1" />
  <defs
     id="defs1">
    <style
       id="style1">
      .cls-1 {
        fill: #f6f6f6;
      }

      .cls-2 {
        fill: #575756;
        stroke: #1d1d1b;
        stroke-miterlimit: 10;
      }
    </style>
  </defs>
  <path
     class="cls-2"
     d="M 89.96,5.25 V 85.2 c 0,2.63 -2.13,4.76 -4.76,4.76 H 5.25 C 2.63,89.96 0.5,87.83 0.5,85.2 V 5.25 C 0.5,2.62 2.63,0.5 5.25,0.5 H 85.2 c 2.63,0 4.76,2.12 4.76,4.75 z"
     id="path1" />
  <path
     class="cls-1"
     d="M 47.98,46.51 16.93,66.47 c -1.02,0.65 -2.35,-0.08 -2.35,-1.29 V 25.27 c 0,-1.21 1.34,-1.94 2.35,-1.29 l 31.05,19.96 c 0.94,0.6 0.94,1.97 0,2.57 z"
     id="path2" />
  <path
     class="cls-1"
     d="M 78.68,46.51 47.59,66.5 c -1.02,0.65 -2.35,-0.08 -2.35,-1.29 V 25.24 c 0,-1.21 1.34,-1.94 2.35,-1.29 l 31.09,19.99 c 0.94,0.6 0.94,1.97 0,2.57 z"
     id="path3" />
</svg>
